<svg width="248" height="233" viewBox="0 0 248 233" fill="none" xmlns="http://www.w3.org/2000/svg">
<path fill-rule="evenodd" clip-rule="evenodd" d="M28 6.06122C28 6.06122 35.3415 0 49.5 0C63.6585 0 71 6.06122 71 6.06122L69.5827 20.2096C73.582 24.8506 75.9999 30.8929 75.9999 37.5C75.9999 52.1355 64.1354 64 49.4999 64C42.171 64 35.537 61.0248 30.7397 56.2164L28.8347 57.1156C24.9219 58.9625 20.2622 57.1245 18.6639 53.1038L17.1203 49.221C15.6332 45.48 17.3648 41.2321 21.0435 39.5969L22.9936 38.7301L23.032 38.8167C23.0107 38.3805 22.9999 37.9415 22.9999 37.5C22.9999 30.8928 25.4179 24.8504 29.4173 20.2094L28 6.06122ZM57.5232 27H68.266C69.5128 29.2235 70.3758 31.6912 70.7654 34.3134C65.1923 33.5429 60.8001 30.4851 57.5232 27ZM30.7338 27H46.8917C46.3442 28.1692 45.7131 29.3245 44.9899 30.4396C41.6854 35.5347 36.4585 39.8167 28.2565 40.8316C28.0876 39.7458 27.9999 38.6331 27.9999 37.5C27.9999 33.6867 28.9927 30.1052 30.7338 27ZM34.6217 22H49.5H64.3783L65.7177 8.62903C65.136 8.32101 64.437 7.98253 63.6221 7.64001C60.5657 6.35539 55.8473 5 49.5 5C43.1527 5 38.4343 6.35539 35.3779 7.64001C34.563 7.98253 33.864 8.32101 33.2823 8.62903L34.6217 22ZM47.5 16.5V20H52.5V16.5H56V11.5H52.5V8H47.5V11.5H44V16.5H47.5ZM93 104V100.038C93 85.543 80.8012 73.9756 66.1983 74.5551C63.8534 74.6481 62.3184 75.0265 60.2507 75.5361C59.9907 75.6002 59.7222 75.6664 59.4427 75.7344C56.8208 76.3715 53.7726 77 49 77C44.1936 77 41.3236 76.3508 38.7851 75.6893L38.654 75.6551L38.4557 75.6032L38.244 75.5475C36.2138 75.014 34.5954 74.5887 31.7959 74.4743C17.1905 73.8776 5 85.4872 5 100.034V104C5 109.523 9.47715 114 15 114H83C88.5229 114 93 109.523 93 104ZM32 69.4785C14.5908 68.7672 0 82.6105 0 100.034V104C0 112.284 6.71573 119 15 119H83C91.2843 119 98 112.284 98 104V100.038C98 82.6444 83.3802 68.8693 66 69.559C63.1265 69.6731 61.1286 70.1675 59.0502 70.6819C56.45 71.3253 53.7239 72 49 72C44.4083 72 41.9437 71.3511 39.4989 70.7074C37.418 70.1595 35.3515 69.6154 32 69.4785ZM49.4999 59C60.7441 59 69.9722 50.3684 70.9197 39.3698C62.1713 38.4773 55.907 33.1483 51.8767 28.1045C51.1383 29.8169 50.2481 31.5209 49.1849 33.1603C45.2769 39.186 39.0323 44.311 29.6161 45.6932C32.8378 53.5032 40.5269 59 49.4999 59ZM23.0744 44.1659L23.7675 43.8578C24.5136 46.8876 25.7808 49.7123 27.4686 52.2315L26.7005 52.594C25.3962 53.2096 23.843 52.597 23.3102 51.2567L21.7667 47.3739C21.2709 46.1269 21.8481 44.711 23.0744 44.1659ZM175.552 36C176.168 27.0523 182.259 19.6105 190.5 17V36H175.552ZM203.5 36H195.5V14.5C195.5 13.1193 196.619 12 198 12H201C202.381 12 203.5 13.1193 203.5 14.5V36ZM208.5 17V36H223.448C222.832 27.0523 216.741 19.6105 208.5 17ZM228.461 36.0423C227.813 24.1024 219.262 14.2647 207.948 11.6701C206.831 8.93072 204.141 7 201 7H198C194.859 7 192.169 8.93072 191.052 11.6701C179.751 14.2617 171.207 24.0791 170.542 36H170C168.619 36 167.5 37.1193 167.5 38.5C167.5 39.8807 168.619 41 170 41H173.934C173.325 43.2299 173 45.577 173 48C173 62.6355 184.864 74.5 199.5 74.5C214.136 74.5 226 62.6355 226 48C226 45.577 225.675 43.2299 225.066 41H228C229.381 41 230.5 39.8807 230.5 38.5C230.5 37.2766 229.621 36.2585 228.461 36.0423ZM179.165 41H190.5H193H206H208.5H219.835C220.59 43.1943 221 45.5493 221 48C221 59.8741 211.374 69.5 199.5 69.5C187.626 69.5 178 59.8741 178 48C178 45.5493 178.41 43.1943 179.165 41ZM243 110.538V114.5C243 120.023 238.523 124.5 233 124.5H165C159.477 124.5 155 120.023 155 114.5V110.534C155 95.9872 167.19 84.3776 181.796 84.9743C184.595 85.0887 186.214 85.514 188.244 86.0475L188.248 86.0485C188.423 86.0947 188.602 86.1417 188.785 86.1893C191.324 86.8508 194.194 87.5 199 87.5C203.773 87.5 206.821 86.8715 209.443 86.2344C209.722 86.1664 209.991 86.1002 210.251 86.0361C212.318 85.5265 213.853 85.1481 216.198 85.0551C230.801 84.4756 243 96.043 243 110.538ZM150 110.534C150 93.1105 164.591 79.2672 182 79.9785C185.352 80.1154 187.418 80.6595 189.499 81.2074C191.944 81.8511 194.408 82.5 199 82.5C203.724 82.5 206.45 81.8253 209.05 81.1819C211.129 80.6675 213.126 80.1731 216 80.059C233.38 79.3693 248 93.1444 248 110.538V114.5C248 122.784 241.284 129.5 233 129.5H165C156.716 129.5 150 122.784 150 114.5V110.534ZM114 56.5C99.9846 56.5 86.9052 60.4744 75.8185 67.3565C74.6454 68.0847 73.1041 67.7241 72.376 66.551C71.6478 65.3779 72.0084 63.8367 73.1815 63.1085C85.037 55.7491 99.0261 51.5 114 51.5C135.418 51.5 154.81 60.1913 168.835 74.2333C169.811 75.2102 169.81 76.7932 168.833 77.7689C167.856 78.7446 166.273 78.7436 165.297 77.7667C152.172 64.6253 134.037 56.5 114 56.5ZM39.1949 123.003C40.5742 123.066 41.6409 124.235 41.5776 125.615C41.5261 126.737 41.5 127.865 41.5 129C41.5 150.238 50.6286 169.34 65.1839 182.603C66.2044 183.533 66.2778 185.114 65.3479 186.135C64.4179 187.156 62.8367 187.229 61.8161 186.299C46.265 172.128 36.5 151.703 36.5 129C36.5 127.789 36.5278 126.583 36.5829 125.385C36.6462 124.006 37.8157 122.939 39.1949 123.003ZM188.982 132.007C190.359 132.106 191.395 133.304 191.295 134.681C191.245 135.372 191.186 136.061 191.117 136.747C188.806 160.027 176.196 180.271 157.918 192.863C156.781 193.647 155.225 193.36 154.441 192.223C153.658 191.086 153.945 189.529 155.082 188.746C172.191 176.958 183.981 158.018 186.142 136.253C186.206 135.611 186.261 134.966 186.308 134.319C186.408 132.942 187.605 131.907 188.982 132.007ZM107.5 173C119.374 173 129 163.374 129 151.5C129 139.626 119.374 130 107.5 130C95.6259 130 86 139.626 86 151.5C86 163.374 95.6259 173 107.5 173ZM107.5 178C122.136 178 134 166.136 134 151.5C134 136.864 122.136 125 107.5 125C92.8645 125 81 136.864 81 151.5C81 166.136 92.8645 178 107.5 178ZM151 218V214.038C151 201.34 141.638 190.889 129.5 188.882L122.111 228H141C146.523 228 151 223.523 151 218ZM117.164 227.249L124.475 188.545C124.421 188.547 124.367 188.549 124.313 188.551C124.275 188.552 124.237 188.553 124.198 188.555C121.853 188.648 120.318 189.026 118.251 189.536L118.25 189.536L117.903 189.622L110.603 198.544L117.164 227.249ZM112.207 228L107 205.22L101.793 228H112.207ZM97.1095 226.051L90.0134 188.484C92.5629 188.605 94.125 188.992 95.9847 189.479C96.0104 189.514 96.0372 189.549 96.0651 189.583L103.397 198.544L97.1095 226.051ZM106.948 194.988L103.584 190.877C104.609 190.955 105.737 191 107 191C108.247 191 109.377 190.957 110.412 190.882L107.052 194.988C107.037 194.988 107.021 194.988 107.006 194.988C106.987 194.988 106.967 194.988 106.948 194.988ZM92.3891 228H73C67.4771 228 63 223.523 63 218V214.034C63 201.124 72.6009 190.528 84.9702 188.723L92.3891 228ZM90 183.478C72.5908 182.767 58 196.61 58 214.034V218C58 226.284 64.7157 233 73 233H141C149.284 233 156 226.284 156 218V214.038C156 196.644 141.38 182.869 124 183.559C121.126 183.673 119.129 184.167 117.05 184.682C114.45 185.325 111.724 186 107 186C102.408 186 99.9437 185.351 97.4989 184.707C95.418 184.159 93.3515 183.615 90 183.478Z" fill="#F15E2F"/>
</svg>
