<?xml version="1.0" encoding="utf-8"?>
<!-- Generator: Adobe Illustrator 25.2.1, SVG Export Plug-In . SVG Version: 6.00 Build 0)  -->
<svg version="1.1" id="Layer_1" xmlns="http://www.w3.org/2000/svg" xmlns:xlink="http://www.w3.org/1999/xlink" x="0px" y="0px"
	 viewBox="0 0 123.84 118.8" style="enable-background:new 0 0 123.84 118.8;" xml:space="preserve">
<style type="text/css">
	.st0{fill:#48B6E8;}
	.st1{fill:#F26135;}
	.st2{fill:#202F61;}
	.st3{fill:#2767B2;}
	.st4{fill:#B11F28;}
</style>
<polygon class="st0" points="93.19,65.98 93.19,34.27 121.77,17.58 121.77,49.29 "/>
<polygon class="st1" points="62.96,117.63 62.96,85.92 91.54,69.23 91.54,100.94 "/>
<polygon class="st2" points="30.49,65.93 30.49,34.22 1.91,17.53 1.91,49.24 "/>
<polygon class="st2" points="61.02,117.63 61.02,85.92 32.44,69.23 32.44,100.94 "/>
<polygon class="st3" points="30.69,1.26 3.14,16.13 31.53,32.58 59.93,16.37 "/>
<polygon class="st0" points="60.82,17.74 60.82,49.45 32.24,66.14 32.24,34.43 "/>
<polygon class="st1" points="62.75,17.74 62.75,49.45 91.33,66.14 91.33,34.43 "/>
<polygon class="st4" points="61.93,84.05 89.99,67.56 61.82,51.07 33.15,67.56 "/>
<polygon class="st3" points="91.67,1.17 63.61,16.38 92.26,32.58 120.91,16.28 "/>
</svg>
