<?xml version="1.0" encoding="utf-8"?>
<!-- Generator: Adobe Illustrator 25.2.0, SVG Export Plug-In . SVG Version: 6.00 Build 0)  -->
<svg version="1.1" id="Layer_1" xmlns="http://www.w3.org/2000/svg" xmlns:xlink="http://www.w3.org/1999/xlink" x="0px" y="0px"
	 viewBox="0 0 252.3 225.2" style="enable-background:new 0 0 252.3 225.2;" xml:space="preserve">
<style type="text/css">
	.st0{fill-rule:evenodd;clip-rule:evenodd;fill:#F15E2F;}
</style>
<path class="st0" d="M104.3,14.3c0-4.5,3.7-8.2,8.2-8.2h62.1c4.5,0,8.2,3.7,8.2,8.2v70.8c0,1.5,1.2,2.7,2.7,2.7s2.7-1.2,2.7-2.7
	V14.3c0-7.5-6.1-13.6-13.6-13.6h-62.1c-7.5,0-13.6,6.1-13.6,13.6v30.2c0,1.5,1.2,2.7,2.7,2.7c1.5,0,2.7-1.2,2.7-2.7V14.3z
	 M45.4,62.3c0-4.5,3.7-8.2,8.2-8.2h59.9c4.5,0,8.2,3.7,8.2,8.2v23.4c0,1.5,1.2,2.7,2.7,2.7s2.7-1.2,2.7-2.7V62.3
	c0-7.5-6.1-13.6-13.6-13.6H53.6c-7.5,0-13.6,6.1-13.6,13.6v100.3H5.1c-1.5,0-2.7,1.2-2.7,2.7s1.2,2.7,2.7,2.7H40v10.9
	c0,1.5,1.2,2.7,2.7,2.7c1.5,0,2.7-1.2,2.7-2.7V62.3z M201.9,132.6h19.3c1.9,0,3.2-1.9,2.5-3.7l-8.6-22.5h-0.2h-16.5L201.9,132.6z
	 M196.4,132.6l-3.5-26.2h-23.2v26.2H196.4z M164.2,132.6v-26.2H141l-3.5,26.2H164.2z M132,132.6l3.5-26.2H119h-0.2l-8.6,22.5
	c-0.7,1.8,0.6,3.7,2.5,3.7H132z M219.8,101.5c0,0.5-0.1,0.9-0.2,1.4l9.2,24.1c1.3,3.5,0.1,7.1-2.4,9.2v26.4H246
	c1.5,0,2.7,1.2,2.7,2.7s-1.2,2.7-2.7,2.7h-19.6v29.4c0,2.7-2.2,4.9-4.9,4.9h-19.1h-2.7h-66.5h-2.7h-18c-2.7,0-4.9-2.2-4.9-4.9v-61.2
	c-2.6-2.1-3.8-5.8-2.4-9.2l9.2-24.1c-0.1-0.4-0.2-0.9-0.2-1.4v-5.4c0-2.7,2.2-4.9,4.9-4.9h95.9c2.7,0,4.9,2.2,4.9,4.9V101.5z
	 M220.9,196.9h-18.5v-44.1V150h-2.7h-66.5h-2.7v2.7v44.1H113V138h107.9v27.2V196.9z M163.1,155.5v41.4h-27.2v-41.4H163.1z
	 M196.9,196.9v-41.4h-28.3v41.4H196.9z M119.5,101h94.8v-4.4h-94.8V101z M34,196.9c-1.5,0-2.7,1.2-2.7,2.7c0,1.5,1.2,2.7,2.7,2.7
	h60.5c1.5,0,2.7-1.2,2.7-2.7c0-1.5-1.2-2.7-2.7-2.7H34z M70.5,222.5c0-1.5,1.2-2.7,2.7-2.7h125.3c1.5,0,2.7,1.2,2.7,2.7
	s-1.2,2.7-2.7,2.7H73.2C71.7,225.2,70.5,224,70.5,222.5z M63.4,74.3v7.6H71v-7.6H63.4z M60.1,68.8c-1.2,0-2.2,1-2.2,2.2v14.2
	c0,1.2,1,2.2,2.2,2.2h14.2c1.2,0,2.2-1,2.2-2.2V71c0-1.2-1-2.2-2.2-2.2H60.1z M124.4,34v-7.6h7.6V34H124.4z M119,23.1
	c0-1.2,1-2.2,2.2-2.2h14.2c1.2,0,2.2,1,2.2,2.2v14.2c0,1.2-1,2.2-2.2,2.2h-14.2c-1.2,0-2.2-1-2.2-2.2V23.1z M63.4,103.7v7.6H71v-7.6
	H63.4z M60.1,98.3c-1.2,0-2.2,1-2.2,2.2v14.2c0,1.2,1,2.2,2.2,2.2h14.2c1.2,0,2.2-1,2.2-2.2v-14.2c0-1.2-1-2.2-2.2-2.2H60.1z
	 M63.4,140.8v-7.6H71v7.6H63.4z M58,129.9c0-1.2,1-2.2,2.2-2.2h14.2c1.2,0,2.2,1,2.2,2.2V144c0,1.2-1,2.2-2.2,2.2H60.1
	c-1.2,0-2.2-1-2.2-2.2V129.9z M93.9,74.3v7.6h7.6v-7.6H93.9z M90.7,68.8c-1.2,0-2.2,1-2.2,2.2v14.2c0,1.2,1,2.2,2.2,2.2h14.2
	c1.2,0,2.2-1,2.2-2.2V71c0-1.2-1-2.2-2.2-2.2H90.7z M155,34v-7.6h7.6V34H155z M149.5,23.1c0-1.2,1-2.2,2.2-2.2h14.2
	c1.2,0,2.2,1,2.2,2.2v14.2c0,1.2-1,2.2-2.2,2.2h-14.2c-1.2,0-2.2-1-2.2-2.2V23.1z M155,59v7.6h7.6V59H155z M151.7,53.6
	c-1.2,0-2.2,1-2.2,2.2v14.2c0,1.2,1,2.2,2.2,2.2h14.2c1.2,0,2.2-1,2.2-2.2V55.8c0-1.2-1-2.2-2.2-2.2H151.7z M93.9,111.3v-7.6h7.6
	v7.6H93.9z M88.5,100.4c0-1.2,1-2.2,2.2-2.2h14.2c1.2,0,2.2,1,2.2,2.2v14.2c0,1.2-1,2.2-2.2,2.2H90.7c-1.2,0-2.2-1-2.2-2.2V100.4z"
	/>
</svg>
