<svg width="83" height="92" viewBox="0 0 83 92" fill="none" xmlns="http://www.w3.org/2000/svg">
<path fill-rule="evenodd" clip-rule="evenodd" d="M5.9262 2.9631H55.7063C57.3428 2.9631 58.6694 4.28973 58.6694 5.9262V37.4085C59.6722 37.48 60.6608 37.603 61.6325 37.7748V5.9262C61.6325 2.65325 58.9792 0 55.7063 0H5.9262C2.65325 0 0 2.65325 0 5.9262V78.8185C0 82.0914 2.65325 84.7447 5.9262 84.7447H34.7398C33.9383 83.8072 33.1961 82.8176 32.519 81.7816H5.9262C4.28973 81.7816 2.9631 80.4549 2.9631 78.8185V5.9262C2.9631 4.28973 4.28973 2.9631 5.9262 2.9631ZM56.5951 88.8932C69.196 88.8932 79.411 78.6781 79.411 66.0773C79.411 53.4764 69.196 43.2614 56.5951 43.2614C43.9942 43.2614 33.7792 53.4764 33.7792 66.0773C33.7792 78.6781 43.9942 88.8932 56.5951 88.8932ZM56.5951 91.8563C70.8324 91.8563 82.3741 80.3146 82.3741 66.0773C82.3741 51.84 70.8324 40.2983 56.5951 40.2983C42.3578 40.2983 30.8161 51.84 30.8161 66.0773C30.8161 80.3146 42.3578 91.8563 56.5951 91.8563ZM12.4449 13.9265C11.6267 13.9265 10.9634 14.5898 10.9634 15.408C10.9634 16.2263 11.6267 16.8896 12.4449 16.8896H48.0021C48.8204 16.8896 49.4837 16.2263 49.4837 15.408C49.4837 14.5898 48.8204 13.9265 48.0021 13.9265H12.4449ZM10.9634 26.6678C10.9634 25.8496 11.6267 25.1863 12.4449 25.1863H48.0021C48.8204 25.1863 49.4837 25.8496 49.4837 26.6678C49.4837 27.486 48.8204 28.1494 48.0021 28.1494H12.4449C11.6267 28.1494 10.9634 27.486 10.9634 26.6678ZM12.4449 36.446C11.6267 36.446 10.9634 37.1093 10.9634 37.9276C10.9634 38.7458 11.6267 39.4091 12.4449 39.4091H35.2608C36.079 39.4091 36.7423 38.7458 36.7423 37.9276C36.7423 37.1093 36.079 36.446 35.2608 36.446H12.4449ZM10.9634 49.1873C10.9634 48.3691 11.6267 47.7058 12.4449 47.7058H28.1493C28.9676 47.7058 29.6309 48.3691 29.6309 49.1873C29.6309 50.0055 28.9676 50.6689 28.1493 50.6689H12.4449C11.6267 50.6689 10.9634 50.0055 10.9634 49.1873ZM72.1619 60.3095C72.7405 59.7309 72.7405 58.7929 72.1619 58.2143C71.5833 57.6357 70.6452 57.6357 70.0667 58.2143L53.0394 75.2416L44.605 66.8073C44.0265 66.2287 43.0884 66.2287 42.5098 66.8073C41.9312 67.3858 41.9312 68.3239 42.5098 68.9025L51.5727 77.9654C52.3827 78.7754 53.696 78.7754 54.506 77.9654L72.1619 60.3095Z" fill="url(#paint0_linear)"/>
<defs>
<linearGradient id="paint0_linear" x1="-14.8273" y1="214.331" x2="117.828" y2="198.762" gradientUnits="userSpaceOnUse">
<stop stop-color="#088505"/>
<stop offset="0.485965" stop-color="#4FD311"/>
<stop offset="1" stop-color="#5CDF1E"/>
</linearGradient>
</defs>
</svg>
