<svg width="33" height="22" viewBox="0 0 33 22" fill="none" xmlns="http://www.w3.org/2000/svg">
<path d="M7.25 4.59766C7.25 4.33984 6.99219 4.08203 6.73438 4.08203H5.01562C4.71484 4.08203 4.5 4.33984 4.5 4.59766V6.31641C4.5 6.61719 4.71484 6.83203 5.01562 6.83203H6.73438C6.99219 6.83203 7.25 6.61719 7.25 6.31641V4.59766ZM12.2344 4.08203H10.5156C10.2148 4.08203 10 4.33984 10 4.59766V6.31641C10 6.61719 10.2148 6.83203 10.5156 6.83203H12.2344C12.4922 6.83203 12.75 6.61719 12.75 6.31641V4.59766C12.75 4.33984 12.4922 4.08203 12.2344 4.08203ZM6.73438 8.20703H5.01562C4.71484 8.20703 4.5 8.46484 4.5 8.72266V10.4414C4.5 10.7422 4.71484 10.957 5.01562 10.957H6.73438C6.99219 10.957 7.25 10.7422 7.25 10.4414V8.72266C7.25 8.46484 6.99219 8.20703 6.73438 8.20703ZM12.2344 8.20703H10.5156C10.2148 8.20703 10 8.46484 10 8.72266V10.4414C10 10.7422 10.2148 10.957 10.5156 10.957H12.2344C12.4922 10.957 12.75 10.7422 12.75 10.4414V8.72266C12.75 8.46484 12.4922 8.20703 12.2344 8.20703ZM6.73438 12.332H5.01562C4.71484 12.332 4.5 12.5898 4.5 12.8477V14.5664C4.5 14.8672 4.71484 15.082 5.01562 15.082H6.73438C6.99219 15.082 7.25 14.8672 7.25 14.5664V12.8477C7.25 12.5898 6.99219 12.332 6.73438 12.332ZM12.2344 12.332H10.5156C10.2148 12.332 10 12.5898 10 12.8477V14.5664C10 14.8672 10.2148 15.082 10.5156 15.082H12.2344C12.4922 15.082 12.75 14.8672 12.75 14.5664V12.8477C12.75 12.5898 12.4922 12.332 12.2344 12.332ZM15.25 21.1406C15.25 20.8828 18.9922 20.625 18.7344 20.625H15.875V1.03125C15.875 0.472656 15.4023 0 14.8438 0H2.40625C1.80469 0 1.375 0.472656 1.375 1.03125V20.625H0.515625C0.214844 20.625 0 20.8828 0 21.1406V22H15.25V21.1406ZM14.5 20.625H10V16.9727C10 16.7148 9.74219 16.457 9.48438 16.457H7.76562C7.46484 16.457 7.25 16.7148 7.25 16.9727V20.625H2.75V1.375H14.5V20.625Z" fill="black"/>
<path d="M22.5 4.59766C22.5 4.33984 22.2422 4.08203 21.9844 4.08203H20.2656C19.9648 4.08203 19.75 4.33984 19.75 4.59766V6.31641C19.75 6.61719 19.9648 6.83203 20.2656 6.83203H21.9844C22.2422 6.83203 22.5 6.61719 22.5 6.31641V4.59766ZM27.4844 4.08203H25.7656C25.4648 4.08203 25.25 4.33984 25.25 4.59766V6.31641C25.25 6.61719 25.4648 6.83203 25.7656 6.83203H27.4844C27.7422 6.83203 28 6.61719 28 6.31641V4.59766C28 4.33984 27.7422 4.08203 27.4844 4.08203ZM21.9844 8.20703H20.2656C19.9648 8.20703 19.75 8.46484 19.75 8.72266V10.4414C19.75 10.7422 19.9648 10.957 20.2656 10.957H21.9844C22.2422 10.957 22.5 10.7422 22.5 10.4414V8.72266C22.5 8.46484 22.2422 8.20703 21.9844 8.20703ZM27.4844 8.20703H25.7656C25.4648 8.20703 25.25 8.46484 25.25 8.72266V10.4414C25.25 10.7422 25.4648 10.957 25.7656 10.957H27.4844C27.7422 10.957 28 10.7422 28 10.4414V8.72266C28 8.46484 27.7422 8.20703 27.4844 8.20703ZM21.9844 12.332H20.2656C19.9648 12.332 19.75 12.5898 19.75 12.8477V14.5664C19.75 14.8672 19.9648 15.082 20.2656 15.082H21.9844C22.2422 15.082 22.5 14.8672 22.5 14.5664V12.8477C22.5 12.5898 22.2422 12.332 21.9844 12.332ZM27.4844 12.332H25.7656C25.4648 12.332 25.25 12.5898 25.25 12.8477V14.5664C25.25 14.8672 25.4648 15.082 25.7656 15.082H27.4844C27.7422 15.082 28 14.8672 28 14.5664V12.8477C28 12.5898 27.7422 12.332 27.4844 12.332ZM32.5 21.1406C32.5 20.8828 32.2422 20.625 31.9844 20.625H31.125V1.03125C31.125 0.472656 30.6523 0 30.0938 0H17.6562C17.0547 0 16.625 0.472656 16.625 1.03125V20.625H15.7656C15.4648 20.625 15.25 20.8828 15.25 21.1406V22H32.5V21.1406ZM29.75 20.625H25.25V16.9727C25.25 16.7148 24.9922 16.457 24.7344 16.457H23.0156C22.7148 16.457 22.5 16.7148 22.5 16.9727V20.625H18V1.375H29.75V20.625Z" fill="black"/>
</svg>
