<svg width="264" height="116" viewBox="0 0 264 116" fill="none" xmlns="http://www.w3.org/2000/svg">
<path fill-rule="evenodd" clip-rule="evenodd" d="M128.011 7.25003C122.034 9.14263 117.616 14.5379 117.169 21.025H128.011V7.25003ZM131.637 21.025H137.44V5.4375C137.44 4.43649 136.628 3.625 135.626 3.625H133.451C132.449 3.625 131.637 4.43649 131.637 5.4375V21.025ZM141.066 21.025V7.25003C147.043 9.14263 151.46 14.5379 151.908 21.025H141.066ZM140.665 3.38581C148.871 5.26694 155.073 12.3992 155.543 21.0557C156.385 21.2124 157.022 21.9506 157.022 22.8375C157.022 23.8385 156.21 24.65 155.209 24.65H153.081C153.522 26.2667 153.758 27.9683 153.758 29.725C153.758 40.3358 145.153 48.9375 134.538 48.9375C123.924 48.9375 115.319 40.3358 115.319 29.725C115.319 27.9683 115.555 26.2667 115.996 24.65H113.143C112.141 24.65 111.33 23.8385 111.33 22.8375C111.33 21.8365 112.141 21.025 113.143 21.025H113.536C114.018 12.3824 120.215 5.26472 128.412 3.38581C129.222 1.39977 131.173 0 133.451 0H135.626C137.904 0 139.855 1.39977 140.665 3.38581ZM128.011 24.65H119.79C119.242 26.2409 118.945 27.9482 118.945 29.725C118.945 38.3338 125.926 45.3125 134.538 45.3125C143.15 45.3125 150.132 38.3338 150.132 29.725C150.132 27.9482 149.834 26.2409 149.287 24.65H141.066H139.253H129.824H128.011ZM166.088 77.9375V75.0653C166.088 64.5562 157.24 56.1698 146.649 56.59C144.949 56.6574 143.835 56.9317 142.336 57.3012C142.147 57.3477 141.952 57.3957 141.75 57.4449C139.848 57.9069 137.637 58.3625 134.176 58.3625C130.69 58.3625 128.608 57.8918 126.767 57.4123C126.635 57.3777 126.505 57.3437 126.377 57.3102L126.375 57.3095C124.902 56.9227 123.729 56.6143 121.698 56.5314C111.105 56.0988 102.264 64.5158 102.264 75.0624V77.9375C102.264 81.9416 105.511 85.1875 109.516 85.1875H158.835C162.841 85.1875 166.088 81.9416 166.088 77.9375ZM121.846 52.9094C109.22 52.3937 98.6374 62.4301 98.6374 75.0624V77.9375C98.6374 83.9436 103.508 88.8125 109.516 88.8125H158.835C164.844 88.8125 169.714 83.9436 169.714 77.9375V75.0653C169.714 62.4547 159.111 52.4678 146.505 52.9678C144.421 53.0505 142.972 53.409 141.465 53.7819C139.579 54.2484 137.602 54.7375 134.176 54.7375C130.846 54.7375 129.058 54.2671 127.285 53.8004C125.776 53.4031 124.277 53.0087 121.846 52.9094ZM35.9011 19.575C25.6323 19.575 20.3077 23.9694 20.3077 23.9694L21.3356 34.2268C18.435 37.5916 16.6812 41.9723 16.6812 46.7625C16.6812 47.0826 16.6891 47.4009 16.7046 47.7171L16.6766 47.6544L15.2623 48.2828C12.5942 49.4683 11.3383 52.548 12.4169 55.2602L13.5364 58.0753C14.6957 60.9903 18.0752 62.3228 20.9131 60.9838L22.2947 60.3319C25.7741 63.818 30.5856 65.975 35.901 65.975C46.5158 65.975 55.1208 57.3733 55.1208 46.7625C55.1208 41.9724 53.3671 37.5917 50.4666 34.227L51.4945 23.9694C51.4945 23.9694 46.1699 19.575 35.9011 19.575ZM49.5116 39.15H41.7201C44.0967 41.6767 47.2824 43.8937 51.3243 44.4522C51.0418 42.5512 50.4158 40.7621 49.5116 39.15ZM34.0094 39.15H22.2905C21.0276 41.4013 20.3076 43.9978 20.3076 46.7625C20.3076 47.584 20.3712 48.3908 20.4937 49.178C26.4425 48.4421 30.2334 45.3377 32.63 41.6437C33.1546 40.8353 33.6123 39.9977 34.0094 39.15ZM35.9011 35.525H25.1103L24.1388 25.8311C24.5607 25.6077 25.0677 25.3623 25.6587 25.114C27.8754 24.1827 31.2975 23.2 35.9011 23.2C40.5047 23.2 43.9268 24.1827 46.1435 25.114C46.7345 25.3623 47.2415 25.6077 47.6634 25.8311L46.692 35.525H35.9011ZM34.4506 34.075V31.5375H31.9121V27.9125H34.4506V25.375H38.0769V27.9125H40.6154V31.5375H38.0769V34.075H34.4506ZM67.4506 92.1028V94.975C67.4506 98.9791 64.2034 102.225 60.1978 102.225H10.8791C6.87354 102.225 3.62637 98.9791 3.62637 94.975V92.0999C3.62637 81.5533 12.4678 73.1363 23.0608 73.5689C25.0912 73.6518 26.265 73.9602 27.7374 74.347C27.8351 74.3727 27.9341 74.3987 28.0347 74.425L28.1299 74.4498C29.9709 74.9294 32.0525 75.4 35.5385 75.4C38.9999 75.4 41.2107 74.9444 43.1123 74.4824C43.315 74.4332 43.5097 74.3852 43.6983 74.3387C45.198 73.9692 46.3113 73.6949 48.0119 73.6275C58.6031 73.2073 67.4506 81.5937 67.4506 92.1028ZM0 92.0999C0 79.4677 10.5823 69.4312 23.2088 69.9469C25.6396 70.0462 27.1383 70.4407 28.6476 70.8379C30.4207 71.3046 32.2082 71.775 35.5385 71.775C38.9646 71.775 40.9418 71.2859 42.8276 70.8194C44.335 70.4465 45.784 70.088 47.8681 70.0053C60.4736 69.5053 71.0769 79.4922 71.0769 92.1028V94.975C71.0769 100.981 66.2062 105.85 60.1978 105.85H10.8791C4.87075 105.85 0 100.981 0 94.975V92.0999ZM51.4363 48.1181C50.7491 56.0921 44.0561 62.35 35.901 62.35C29.3932 62.35 23.8164 58.3648 21.4798 52.7026C28.3091 51.7005 32.8382 47.9849 35.6726 43.6162C36.4437 42.4277 37.0893 41.1923 37.6249 39.9508C40.5479 43.6075 45.0913 47.4711 51.4363 48.1181ZM17.238 51.3719L16.7353 51.5953C15.8459 51.9905 15.4273 53.017 15.7868 53.9211L16.9063 56.7361C17.2927 57.7078 18.4192 58.152 19.3652 57.7057L19.9222 57.4428C18.6981 55.6164 17.7791 53.5685 17.238 51.3719ZM228.824 72.5C237.436 72.5 244.418 65.5213 244.418 56.9125C244.418 48.3038 237.436 41.325 228.824 41.325C220.212 41.325 213.231 48.3038 213.231 56.9125C213.231 65.5213 220.212 72.5 228.824 72.5ZM228.824 76.125C239.439 76.125 248.044 67.5233 248.044 56.9125C248.044 46.3018 239.439 37.7 228.824 37.7C218.209 37.7 209.604 46.3018 209.604 56.9125C209.604 67.5233 218.209 76.125 228.824 76.125ZM260.374 105.125V102.253C260.374 93.0464 253.584 85.4692 244.78 84.0145L239.421 112.375H253.121C257.126 112.375 260.374 109.129 260.374 105.125ZM235.833 111.831L241.136 83.7705C241.069 83.7725 241.002 83.7748 240.935 83.7774C239.234 83.8449 238.121 84.1192 236.621 84.4887L236.369 84.5507L231.075 91.0195L235.833 111.831ZM232.238 112.375L228.462 95.8592L224.685 112.375H232.238ZM221.288 110.962L216.142 83.7258C217.991 83.8139 219.124 84.094 220.472 84.4476C220.482 84.4605 220.492 84.4734 220.502 84.4861C220.511 84.4984 220.521 84.5106 220.531 84.5227L225.848 91.0195L221.288 110.962ZM228.424 88.4414L225.984 85.4609C226.727 85.5175 227.546 85.55 228.462 85.55C229.366 85.55 230.185 85.5189 230.936 85.4646L228.499 88.4414C228.474 88.4411 228.449 88.4411 228.424 88.4414ZM217.865 112.375H203.802C199.797 112.375 196.549 109.129 196.549 105.125V102.25C196.549 92.8902 203.513 85.2078 212.484 83.8995L217.865 112.375ZM216.132 80.0969C203.505 79.5812 192.923 89.6176 192.923 102.25V105.125C192.923 111.131 197.794 116 203.802 116H253.121C259.129 116 264 111.131 264 105.125V102.253C264 89.6421 253.397 79.6552 240.791 80.1553C238.707 80.238 237.258 80.5964 235.751 80.9693C233.865 81.4359 231.888 81.925 228.462 81.925C225.131 81.925 223.344 81.4545 221.571 80.9878C220.061 80.5906 218.563 80.1961 216.132 80.0969ZM95.2342 69.6279C95.6193 70.5519 95.1822 71.6131 94.2578 71.9981L72.4996 81.0606C71.5752 81.4456 70.5136 81.0087 70.1285 80.0847C69.7433 79.1606 70.1805 78.0995 71.1048 77.7145L92.8631 68.652C93.7874 68.2669 94.849 68.7039 95.2342 69.6279ZM196.92 84.2519C197.882 84.5313 198.888 83.9785 199.167 83.0173C199.447 82.0561 198.894 81.0503 197.932 80.771L175.297 74.1947C174.336 73.9153 173.33 74.4681 173.05 75.4293C172.771 76.3905 173.324 77.3963 174.285 77.6757L196.92 84.2519Z" fill="#F15E2F"/>
</svg>
