<svg width="83" height="92" viewBox="0 0 83 92" fill="none" xmlns="http://www.w3.org/2000/svg">
<path fill-rule="evenodd" clip-rule="evenodd" d="M55.7935 2.96774H5.93548C4.29645 2.96774 2.96774 4.29645 2.96774 5.93548V78.9419C2.96774 80.581 4.29645 81.9097 5.93548 81.9097H32.5699C33.2481 82.9473 33.9915 83.9385 34.7942 84.8774H5.93548C2.65741 84.8774 0 82.22 0 78.9419V5.93548C0 2.65741 2.65741 0 5.93548 0H55.7935C59.0716 0 61.729 2.65741 61.729 5.93548V37.8342C60.7558 37.6621 59.7657 37.539 58.7613 37.4674V5.93548C58.7613 4.29645 57.4326 2.96774 55.7935 2.96774ZM79.5355 66.1806C79.5355 78.8012 69.3045 89.0323 56.6839 89.0323C44.0633 89.0323 33.8323 78.8012 33.8323 66.1806C33.8323 53.56 44.0633 43.329 56.6839 43.329C69.3045 43.329 79.5355 53.56 79.5355 66.1806ZM82.5032 66.1806C82.5032 80.4403 70.9435 92 56.6839 92C42.4242 92 30.8645 80.4403 30.8645 66.1806C30.8645 51.921 42.4242 40.3613 56.6839 40.3613C70.9435 40.3613 82.5032 51.921 82.5032 66.1806ZM10.9806 15.4323C10.9806 14.6127 11.645 13.9484 12.4645 13.9484H48.0774C48.8969 13.9484 49.5613 14.6127 49.5613 15.4323C49.5613 16.2518 48.8969 16.9161 48.0774 16.9161H12.4645C11.645 16.9161 10.9806 16.2518 10.9806 15.4323ZM12.4645 25.2258C11.645 25.2258 10.9806 25.8902 10.9806 26.7097C10.9806 27.5292 11.645 28.1936 12.4645 28.1936H48.0774C48.8969 28.1936 49.5613 27.5292 49.5613 26.7097C49.5613 25.8902 48.8969 25.2258 48.0774 25.2258H12.4645ZM10.9806 37.9871C10.9806 37.1676 11.645 36.5032 12.4645 36.5032H35.3161C36.1357 36.5032 36.8 37.1676 36.8 37.9871C36.8 38.8066 36.1357 39.471 35.3161 39.471H12.4645C11.645 39.471 10.9806 38.8066 10.9806 37.9871ZM12.4645 47.7806C11.645 47.7806 10.9806 48.445 10.9806 49.2645C10.9806 50.084 11.645 50.7484 12.4645 50.7484H28.1935C29.0131 50.7484 29.6774 50.084 29.6774 49.2645C29.6774 48.445 29.0131 47.7806 28.1935 47.7806H12.4645ZM67.2299 56.5249C67.8094 57.1044 67.8094 58.044 67.2299 58.6235L59.2275 66.6258L67.2299 74.6282C67.8094 75.2077 67.8094 76.1472 67.2299 76.7267C66.6504 77.3062 65.7109 77.3062 65.1314 76.7267L57.129 68.7243L49.1267 76.7267C48.5472 77.3062 47.6077 77.3062 47.0282 76.7267C46.4487 76.1472 46.4487 75.2077 47.0282 74.6282L55.0305 66.6258L47.0282 58.6235C46.4487 58.044 46.4487 57.1044 47.0282 56.5249C47.6076 55.9454 48.5472 55.9454 49.1267 56.5249L57.129 64.5273L65.1314 56.5249C65.7109 55.9455 66.6504 55.9455 67.2299 56.5249Z" fill="url(#paint0_linear)"/>
<defs>
<linearGradient id="paint0_linear" x1="-49.0768" y1="177.277" x2="93.1452" y2="-60.0943" gradientUnits="userSpaceOnUse">
<stop stop-color="#1A3966"/>
<stop offset="0.541667" stop-color="#015CAB"/>
<stop offset="1" stop-color="#8BD3EF"/>
</linearGradient>
</defs>
</svg>
