<svg width="228" height="147" viewBox="0 0 228 147" fill="none" xmlns="http://www.w3.org/2000/svg">
<path fill-rule="evenodd" clip-rule="evenodd" d="M100.022 8.91991C100.022 5.96411 102.429 3.56796 105.398 3.56796H146.257C149.226 3.56796 151.633 5.96411 151.633 8.9199V55.3034C151.633 56.2887 152.435 57.0874 153.425 57.0874C154.414 57.0874 155.217 56.2887 155.217 55.3034V8.9199C155.217 3.99358 151.205 0 146.257 0H105.398C100.45 0 96.438 3.99359 96.438 8.91991V28.6778C96.438 29.663 97.2404 30.4618 98.2301 30.4618C99.2198 30.4618 100.022 29.663 100.022 28.6778V8.91991ZM61.3142 40.318C61.3142 37.3622 63.7211 34.966 66.6903 34.966H106.115C109.084 34.966 111.491 37.3622 111.491 40.318V55.6194C111.491 56.6047 112.293 57.4034 113.283 57.4034C114.273 57.4034 115.075 56.6047 115.075 55.6194V40.318C115.075 35.3916 111.064 31.3981 106.115 31.3981H66.6903C61.7417 31.3981 57.7301 35.3916 57.7301 40.318V105.968H1.79204C0.802321 105.968 0 106.767 0 107.752C0 108.738 0.802321 109.536 1.79204 109.536H57.7301V116.672C57.7301 117.658 58.5324 118.456 59.5221 118.456C60.5118 118.456 61.3142 117.658 61.3142 116.672V40.318ZM164.217 86.3447H176.893C178.149 86.3447 179.015 85.0924 178.567 83.9245L172.929 69.2184H172.779H161.923L164.217 86.3447ZM160.601 86.3447L158.307 69.2184H143.031V86.3447H160.601ZM139.447 86.3447V69.2184H124.171L121.877 86.3447H139.447ZM118.261 86.3447L120.555 69.2184H109.699H109.549L103.91 83.9245C103.463 85.0924 104.329 86.3447 105.585 86.3447H118.261ZM176.004 66.0073C176.004 66.3179 175.96 66.6182 175.877 66.9023L181.916 82.6523C182.788 84.9273 181.998 87.3092 180.305 88.6998V105.968H226.208C227.198 105.968 228 106.767 228 107.752C228 108.738 227.198 109.536 226.208 109.536H180.305V128.803C180.305 130.577 178.861 132.015 177.08 132.015H164.535H162.743H119.018H117.226H105.398C103.617 132.015 102.173 130.577 102.173 128.803V88.6998C100.48 87.3092 99.6898 84.9273 100.562 82.6523L106.6 66.9023C106.518 66.6182 106.473 66.3179 106.473 66.0073V62.4393C106.473 60.6658 107.918 59.2282 109.699 59.2282H172.779C174.56 59.2282 176.004 60.6658 176.004 62.4393V66.0073ZM176.721 128.447H164.535V99.5461V97.7621H162.743H119.018H117.226V99.5461V128.447H105.757V89.9126H176.721V107.752V128.447ZM138.73 101.33V128.447H120.81V101.33H138.73ZM160.951 128.447V101.33H142.314V128.447H160.951ZM110.058 65.6505H172.42V62.7961H110.058V65.6505ZM30.7876 128.447C29.7979 128.447 28.9956 129.245 28.9956 130.231C28.9956 131.216 29.7979 132.015 30.7876 132.015H93.5708C94.5605 132.015 95.3628 131.216 95.3628 130.231C95.3628 129.245 94.5605 128.447 93.5708 128.447H30.7876ZM77.8009 145.216C77.8009 144.231 78.6032 143.432 79.5929 143.432H195.027C196.016 143.432 196.819 144.231 196.819 145.216C196.819 146.201 196.016 147 195.027 147H79.5929C78.6032 147 77.8009 146.201 77.8009 145.216ZM73.1416 48.1675V53.1626H78.1593V48.1675H73.1416ZM70.9911 44.5995C70.1994 44.5995 69.5575 45.2385 69.5575 46.0267V55.3034C69.5575 56.0916 70.1994 56.7306 70.9911 56.7306H80.3097C81.1015 56.7306 81.7434 56.0916 81.7434 55.3034V46.0267C81.7434 45.2385 81.1015 44.5995 80.3097 44.5995H70.9911ZM113.283 21.7646V16.7694H118.301V21.7646H113.283ZM109.699 14.6286C109.699 13.8404 110.341 13.2015 111.133 13.2015H120.451C121.243 13.2015 121.885 13.8404 121.885 14.6286V23.9053C121.885 24.6936 121.243 25.3325 120.451 25.3325H111.133C110.341 25.3325 109.699 24.6936 109.699 23.9053V14.6286ZM73.1416 67.4345V72.4296H78.1593V67.4345H73.1416ZM70.9911 63.8665C70.1994 63.8665 69.5575 64.5055 69.5575 65.2937V74.5704C69.5575 75.3586 70.1994 75.9976 70.9911 75.9976H80.3097C81.1015 75.9976 81.7434 75.3586 81.7434 74.5704V65.2937C81.7434 64.5055 81.1015 63.8665 80.3097 63.8665H70.9911ZM73.1416 91.6966V86.7015H78.1593V91.6966H73.1416ZM69.5575 84.5607C69.5575 83.7725 70.1994 83.1335 70.9911 83.1335H80.3097C81.1015 83.1335 81.7434 83.7725 81.7434 84.5607V93.8374C81.7434 94.6256 81.1015 95.2646 80.3097 95.2646H70.9911C70.1994 95.2646 69.5575 94.6256 69.5575 93.8374V84.5607ZM93.2124 48.1675V53.1626H98.2301V48.1675H93.2124ZM91.062 44.5995C90.2702 44.5995 89.6283 45.2385 89.6283 46.0267V55.3034C89.6283 56.0916 90.2702 56.7306 91.062 56.7306H100.381C101.172 56.7306 101.814 56.0916 101.814 55.3034V46.0267C101.814 45.2385 101.172 44.5995 100.381 44.5995H91.062ZM133.354 21.7646V16.7694H138.372V21.7646H133.354ZM129.77 14.6286C129.77 13.8404 130.412 13.2015 131.204 13.2015H140.522C141.314 13.2015 141.956 13.8404 141.956 14.6286V23.9053C141.956 24.6936 141.314 25.3325 140.522 25.3325H131.204C130.412 25.3325 129.77 24.6936 129.77 23.9053V14.6286ZM133.354 38.1772V43.1723H138.372V38.1772H133.354ZM131.204 34.6092C130.412 34.6092 129.77 35.2482 129.77 36.0364V45.3131C129.77 46.1013 130.412 46.7403 131.204 46.7403H140.522C141.314 46.7403 141.956 46.1013 141.956 45.3131V36.0364C141.956 35.2482 141.314 34.6092 140.522 34.6092H131.204ZM93.2124 72.4296V67.4345H98.2301V72.4296H93.2124ZM89.6283 65.2937C89.6283 64.5055 90.2702 63.8665 91.062 63.8665H100.381C101.172 63.8665 101.814 64.5055 101.814 65.2937V74.5704C101.814 75.3586 101.172 75.9976 100.381 75.9976H91.062C90.2702 75.9976 89.6283 75.3586 89.6283 74.5704V65.2937Z" fill="#F15E2F"/>
</svg>
